# xmcd
#
# Track frame offsets:
#	150
#	16387
#	31392
#	54142
#	68400
#	81542
#	97597
#	115322
#	130322
#	150832
#
# Disc length: 2194 seconds
#
# Revision: 5
# Processed by: cddbd v1.5.2PL0 Copyright (c) Steve Scherf et al.
# Submitted via: EZCDAudioConverter 6.0.3.1
#
DISCID=6b08900a
DTITLE=Charlie Daniels - Same Ol' Me
DYEAR=1995
DGENRE=Country
TTITLE0=Same Ol' Me
TTITLE1=Little Joe And Big Bill
TTITLE2=Take Me To The Wild Side
TTITLE3=My Baby Plays Me Just Like A Fiddle
TTITLE4=Gone For Real
TTITLE5=Sure Beats Pickin' Cotton
TTITLE6=Guilty
TTITLE7=Fais Do Do
TTITLE8=Bad Blood
TTITLE9=Hit The Ground Runnin'
EXTD=
EXTT0=
EXTT1=
EXTT2=
EXTT3=
EXTT4=
EXTT5=
EXTT6=
EXTT7=
EXTT8=
EXTT9=
PLAYORDER=
